<?xml version="1.0" encoding="utf-8"?>
<!-- Generator: Adobe Illustrator 16.0.0, SVG Export Plug-In . SVG Version: 6.00 Build 0)  -->
<!DOCTYPE svg PUBLIC "-//W3C//DTD SVG 1.1//EN" "http://www.w3.org/Graphics/SVG/1.1/DTD/svg11.dtd">
<svg version="1.1" id="Layer_1" xmlns="http://www.w3.org/2000/svg" xmlns:xlink="http://www.w3.org/1999/xlink" x="0px" y="0px"
	 width="433px" height="433px" viewBox="-0.193 -23.951 433 433" enable-background="new -0.193 -23.951 433 433"
	 xml:space="preserve">
<g>
	<g>
		<g>
			<path fill="#3CB878" d="M238.613,169.883c0,6.097-4.178,11.038-9.331,11.038c-5.154,0-9.327-4.941-9.327-11.038
				c0-6.095,4.173-11.04,9.327-11.04C234.436,158.846,238.613,163.788,238.613,169.883z"/>
		</g>
	</g>
</g>
<g>
	<g>
		<g>
			<ellipse fill="#007335" cx="97.65" cy="169.883" rx="9.329" ry="11.038"/>
		</g>
	</g>
</g>
<path fill="#3CB878" d="M264.287,180.595c16.521-13.923,31.504-24.518,40.473-26.224l20.129-20.129
	c-7.178-9.049-15.616-17.15-25.04-24.325c-0.109-0.083-0.216-0.17-0.326-0.254c-8.36-6.329-17.495-11.926-27.227-16.786
	c0-0.004,0.001-0.007,0.002-0.01c9.983-50.729,42.664-90.396,43.892-91.871c0.024-0.029,0.04-0.049,0.04-0.049
	c-76.129-8.998-108.292,48.462-117.614,70.114c-0.135-0.019-0.269-0.039-0.404-0.057c-11.793-1.538-23.779-2.308-35.766-2.308
	v186.99c0.007,0,0.014-0.001,0.021-0.001c0.003,0,0.005,0,0.008,0c0.008,0,0.017-0.001,0.025-0.001c0.001,0,0.002,0,0.003,0
	c6.188,0.022,11.929,1.744,16.998,4.527c0.001,0,0.001,0,0.001,0c0.05,0.027,0.101,0.054,0.151,0.081
	c0.516,0.286,1.024,0.586,1.524,0.896C187.691,254.232,229.416,209.985,264.287,180.595z M253.755,151.294
	c0,54.98-49.675,36.941-49.675,36.941C202.94,136.559,253.755,151.294,253.755,151.294z"/>
<path fill="#007335" d="M126.275,71.063C116.953,49.411,84.791-8.051,8.66,0.948c0,0,0.016,0.02,0.04,0.049
	c1.208,1.451,32.885,39.897,43.402,89.478c0,0.001,0.001,0.001,0.001,0.002c0.168,0.793,0.331,1.589,0.488,2.388
	c0.001,0.01,0.004,0.02,0.006,0.027c-9.859,4.926-19.099,10.611-27.55,17.04C15.62,117.1,7.176,125.196,0,134.242l20.181,20.182
	c8.973,1.738,23.921,12.309,40.402,26.198c34.89,29.402,76.649,73.689,83.137,80.62c-3.39,2.107-6.406,4.74-8.919,7.802l0.018,0.018
	c2.905-3.543,6.482-6.517,10.537-8.766c0.034-0.019,0.068-0.036,0.102-0.054c5.065-2.792,10.806-4.521,16.989-4.554V68.699
	C150.321,68.699,138.199,69.49,126.275,71.063z M120.809,188.236c0,0-49.675,18.039-49.675-36.941
	C71.134,151.294,121.952,136.559,120.809,188.236z"/>
<path fill="#F6F3CF" d="M181.177,261.191c-0.004,0.004-0.009,0.01-0.012,0.014c3.396,2.104,6.419,4.733,8.939,7.793l-1.345,1.346
	l0.016,0.016c0,0,0.478-0.478,1.361-1.36C187.61,265.933,184.581,263.298,181.177,261.191z"/>
<path fill="#3C3C3B" d="M181.165,261.204c-0.507-0.314-1.021-0.617-1.544-0.908c-0.05-0.027-0.101-0.054-0.151-0.081
	c0,0,0,0-0.001,0c-5.069-2.783-10.809-4.505-16.998-4.527c-0.001,0-0.002,0-0.002,0c-0.009,0-0.018,0.001-0.026,0.001
	c-0.003,0-0.005,0-0.008,0c-0.007,0-0.015,0.001-0.021,0.001c-6.183,0.031-11.923,1.762-16.988,4.554l0,0
	c-0.034,0.018-0.068,0.035-0.102,0.054c-0.544,0.302-1.077,0.619-1.603,0.946c-3.397,2.111-6.418,4.751-8.934,7.818l1.333,1.332
	l26.264,26.265v0.061l0.031-0.03l0.03,0.03v-0.061l26.315-26.314l1.345-1.346C187.583,265.938,184.56,263.309,181.165,261.204z"/>
<path fill="none" d="M8.66,0.948c0,0,0.016,0.02,0.04,0.049C8.676,0.967,8.66,0.948,8.66,0.948z"/>
<path fill="none" d="M52.596,92.891c-0.002-0.009-0.004-0.019-0.006-0.027C52.592,92.872,52.594,92.882,52.596,92.891L52.596,92.891
	z"/>
<polygon fill="none" points="272.296,92.877 272.296,92.877 272.298,92.867 "/>
<path fill="none" d="M52.102,90.474c0,0.001,0.001,0.001,0.001,0.002C52.103,90.475,52.102,90.475,52.102,90.474z"/>
<path fill="none" d="M316.229,0.948c0,0-0.016,0.02-0.04,0.049C316.214,0.967,316.229,0.948,316.229,0.948z"/>
<path fill="#3C3C3B" d="M272.298,92.867c-0.001,0.003-0.001,0.006-0.002,0.01c9.731,4.86,18.867,10.457,27.227,16.786
	c0.11,0.084,0.217,0.171,0.326,0.254c9.149-20.507,15.844-59.214,16.38-108.97c0,0-0.016,0.02-0.04,0.049
	C314.963,2.471,282.282,42.138,272.298,92.867z"/>
<path fill="#3C3C3B" d="M272.298,92.867c9.983-50.729,42.665-90.396,43.892-91.871C314.962,2.472,282.282,42.138,272.298,92.867z"/>
<path fill="#3C3C3B" d="M52.59,92.863c-0.157-0.799-0.32-1.595-0.488-2.388c0-0.001,0-0.001-0.001-0.002
	C41.584,40.894,9.907,2.447,8.7,0.996C8.676,0.967,8.66,0.948,8.66,0.948c0.537,49.767,7.234,88.479,16.386,108.982
	c8.451-6.429,17.691-12.114,27.55-17.04C52.594,92.882,52.592,92.872,52.59,92.863z"/>
<path fill="#3C3C3B" d="M8.7,0.996c1.208,1.45,32.885,39.896,43.402,89.478C41.584,40.895,9.908,2.448,8.7,0.996z"/>
<path fill="#3C3C3B" d="M52.103,90.476c0.168,0.793,0.331,1.589,0.488,2.388C52.433,92.064,52.271,91.269,52.103,90.476z"/>
<path fill="#007335" d="M162.443,296.657v0.061l-0.03-0.03l-0.031,0.03v-0.061l-26.264-26.265l-0.006,0.006
	c0,0-45.879-45.88-81.05-81.051C44.644,207.48,38.686,228.5,38.686,250.911c0,68.351,55.409,123.759,123.758,123.759
	c0,0,0,0,0.001,0v-78.017L162.443,296.657z"/>
<g>
	<g>
		<path fill="#F6F3CF" d="M348.289,225.088c-0.677-21.906,12.78-48.868,12.78-48.868c-15.34-0.723-30.744,5.037-43.909,12.372
			c21.35-45.211,86.038-78.657,86.038-78.657s73.264,70.829-11.459,151.125c7.956-34.693-3.833-64.4-3.833-64.4
			C374.879,218.015,348.289,225.088,348.289,225.088z"/>
	</g>
</g>
<path fill="#3CB878" d="M387.906,196.658c-13.026,21.355-39.617,28.43-39.617,28.43c-0.677-21.906,12.78-48.868,12.78-48.868
	c-15.34-0.723-30.744,5.037-43.909,12.372c-1.809,3.828-3.402,7.708-4.525,11.69c-5.249,18.676-14.283,37.119-26.454,52.349
	c-0.372,27.306-9.582,52.474-24.906,72.772c29.72-2.373,67.836-14.686,112.493-49.028c6.666-5.135,12.607-10.244,17.97-15.315
	C399.694,226.365,387.906,196.658,387.906,196.658z"/>
<path fill="#3CB878" d="M269.812,189.321c-35.17,35.171-81.038,81.037-81.038,81.037l-0.016-0.016l-26.313,26.313v78.017
	c40.381,0,76.241-19.345,98.83-49.268c15.324-20.3,24.534-45.468,24.906-72.772c0.008-0.572,0.022-1.145,0.022-1.719
	C286.203,228.489,280.239,207.46,269.812,189.321z"/>
<path fill="#F6F3CF" d="M264.287,180.595c-34.872,29.391-76.596,73.638-83.11,80.597c3.404,2.106,6.434,4.741,8.958,7.807
	c3.811-3.812,15.292-15.292,29.721-29.723l84.904-84.903C295.791,156.077,280.808,166.672,264.287,180.595z"/>
<path fill="#D5D2B1" d="M143.72,261.242c-6.487-6.931-48.247-51.218-83.137-80.62c-16.48-13.891-31.429-24.46-40.402-26.198
	L134.8,269.044C137.313,265.983,140.33,263.351,143.72,261.242z"/>
<g>
	<path fill="#3C3C3B" d="M114.779,344.297c-22.531,0-40.805,18.267-40.805,40.801h81.61
		C155.584,362.563,137.309,344.297,114.779,344.297z"/>
	<path fill="#3C3C3B" d="M209.086,344.297c-22.534,0-40.806,18.267-40.806,40.801h81.603
		C249.883,362.563,231.625,344.297,209.086,344.297z"/>
</g>
</svg>
